<svg width="180" height="64" viewBox="0 0 180 64" fill="none" xmlns="http://www.w3.org/2000/svg">
<path d="M69.651 23.7261L88.933 46.8551C89.5584 47.606 90.4356 48.1036 91.401 48.2551V34.8111L72.128 12.6201C71.491 11.8886 70.6115 11.4114 69.651 11.2761V23.7261Z" fill="#03FF94"/>
<path d="M121.707 19.3691C123.439 19.3412 125.144 19.8036 126.625 20.7031C128.094 21.6086 129.294 22.8906 130.101 24.4161C130.975 26.0615 131.42 27.901 131.394 29.7641C131.421 31.6158 130.976 33.4439 130.101 35.0761C129.289 36.5944 128.084 37.8665 126.612 38.7591C125.508 39.4299 124.279 39.8676 122.999 40.0452C121.72 40.2229 120.418 40.1367 119.173 39.7921C117.928 39.4474 116.767 38.8515 115.761 38.0412C114.755 37.2308 113.926 36.2231 113.324 35.0801C112.466 33.4391 112.031 31.6097 112.059 29.7581C112.031 27.8912 112.467 26.0466 113.326 24.3891C114.116 22.8544 115.319 21.571 116.799 20.6838C118.279 19.7966 119.978 19.3409 121.704 19.3681M131.03 13.6031C128.196 11.9707 124.977 11.1248 121.707 11.1531C118.484 11.112 115.31 11.9401 112.518 13.5502C109.727 15.1604 107.42 17.4931 105.842 20.3031C104.211 23.187 103.369 26.45 103.402 29.7631V59.5171C103.382 60.1178 103.486 60.7161 103.709 61.2744C103.932 61.8327 104.267 62.3389 104.695 62.7611C105.314 63.4044 106.115 63.8444 106.989 64.023C107.864 64.2016 108.773 64.1102 109.595 63.7611C110.419 63.4067 111.117 62.8126 111.599 62.0561C112.08 61.2995 112.323 60.4155 112.295 59.5191V44.5101C114.986 46.7115 118.293 48.0252 121.761 48.2706C125.23 48.5159 128.689 47.6808 131.663 45.8801C134.284 44.2463 136.41 41.9302 137.815 39.1801C139.315 36.2699 140.079 33.036 140.039 29.7621C140.075 26.4574 139.25 23.2003 137.646 20.3111C136.087 17.5184 133.801 15.2003 131.03 13.6031Z" fill="white"/>
<path d="M166.17 38.7841C164.646 39.6437 162.926 40.0953 161.177 40.0953C159.428 40.0953 157.708 39.6437 156.184 38.7841C154.72 37.9182 153.528 36.6592 152.743 35.1501C151.88 33.4891 151.445 31.6388 151.478 29.7671C151.446 27.8815 151.882 26.0175 152.748 24.3421C153.533 22.8265 154.723 21.5588 156.186 20.6801C157.71 19.8205 159.43 19.3689 161.179 19.3689C162.928 19.3689 164.648 19.8205 166.172 20.6801C167.63 21.5488 168.809 22.8154 169.572 24.3311C170.42 26.0158 170.847 27.8811 170.816 29.7671C170.848 31.6388 170.421 33.4899 169.574 35.1591C168.804 36.6657 167.622 37.9227 166.166 38.7841M177.106 20.1571C175.576 17.3888 173.311 15.0966 170.561 13.5331C167.698 11.9266 164.462 11.1052 161.179 11.1521C157.867 11.1018 154.6 11.9218 151.705 13.5301C148.945 15.0843 146.677 17.383 145.16 20.1641C143.577 23.1129 142.775 26.4177 142.829 29.7641C142.779 33.0902 143.581 36.3737 145.159 39.3021C146.677 42.0853 148.947 44.385 151.711 45.9381C154.62 47.4983 157.87 48.3148 161.171 48.3148C164.472 48.3148 167.722 47.4983 170.631 45.9381C173.371 44.3711 175.622 42.0737 177.133 39.3021C178.706 36.3734 179.504 33.091 179.45 29.7671C179.506 26.4146 178.692 23.1049 177.089 20.1601" fill="white"/>
<path d="M49.36 25.723H31.986C32.5363 23.7374 33.7552 22.0026 35.4367 20.8117C37.1182 19.6209 39.1593 19.047 41.215 19.187C42.2601 19.1359 43.3048 19.2973 44.2857 19.6616C45.2666 20.0258 46.1635 20.5852 46.922 21.306C48.1326 22.5193 48.9753 24.0502 49.353 25.722M50.106 13.522C47.4139 11.9444 44.3355 11.1479 41.216 11.222C37.9689 11.174 34.7683 11.998 31.948 13.608C29.2285 15.1873 27.0067 17.4979 25.535 20.277C23.9856 23.221 23.1993 26.5066 23.248 29.833C23.1968 33.1767 24.035 36.4739 25.677 39.387C27.2733 42.183 29.6192 44.4773 32.45 46.011C34.8984 47.3206 37.5921 48.1074 40.3604 48.3216C43.1287 48.5357 45.9114 48.1725 48.532 47.255C50.5483 46.6065 52.4374 45.6146 54.116 44.323C54.5826 43.9941 54.9633 43.5577 55.2257 43.0507C55.4882 42.5437 55.6248 41.9809 55.624 41.41C55.5783 40.3137 55.1077 39.2781 54.3118 38.5228C53.5159 37.7674 52.4572 37.3514 51.36 37.363C50.3375 37.3458 49.3402 37.6813 48.536 38.313C47.6426 38.9594 46.6528 39.4605 45.603 39.798C43.8343 40.4079 41.9412 40.5657 40.096 40.2571C38.2507 39.9485 36.512 39.1833 35.038 38.031C33.5374 36.8177 32.4462 35.1724 31.912 33.318H53.773C54.3145 33.3321 54.8533 33.2383 55.3581 33.0418C55.8629 32.8454 56.3235 32.5504 56.713 32.174C57.1006 31.7983 57.407 31.3471 57.6134 30.8483C57.8198 30.3495 57.9218 29.8137 57.913 29.274C57.9696 26.0656 57.2902 22.8869 55.927 19.982C54.6563 17.3137 52.6383 15.0717 50.118 13.528" fill="white"/>
<path d="M69.651 35.377V11.277C69.1237 11.1979 68.5859 11.2242 68.0689 11.3545C67.5519 11.4848 67.0658 11.7165 66.639 12.036L62.383 15.219C61.8753 15.6018 61.4633 16.0972 61.1794 16.6662C60.8956 17.2351 60.7475 17.8622 60.747 18.498L60.708 35.377H60.685V43.808C60.6638 44.4131 60.7684 45.0159 60.9921 45.5784C61.2159 46.1409 61.554 46.6509 61.985 47.076C62.6107 47.7231 63.418 48.1651 64.3002 48.3436C65.1823 48.5221 66.0979 48.4288 66.926 48.076C67.7562 47.7198 68.4601 47.1223 68.9466 46.3611C69.433 45.5999 69.6795 44.7101 69.654 43.807L69.651 35.377Z" fill="white"/>
<path d="M91.396 24.1531V48.2531C91.9233 48.3325 92.4611 48.3063 92.9782 48.176C93.4953 48.0457 93.9813 47.8139 94.408 47.4941L98.65 44.3111C99.1569 43.9299 99.5685 43.4364 99.8527 42.8694C100.137 42.3024 100.286 41.6773 100.288 41.0431L100.33 24.1531H100.358V15.7201C100.379 15.1151 100.275 14.5122 100.051 13.9497C99.8271 13.3872 99.489 12.8772 99.058 12.4521C98.4331 11.8048 97.6263 11.3626 96.7445 11.1841C95.8627 11.0055 94.9475 11.099 94.12 11.4521C93.2902 11.8085 92.5868 12.4063 92.1014 13.1679C91.6159 13.9294 91.3709 14.8194 91.398 15.7221L91.396 24.1531Z" fill="white"/>
<path d="M23.406 40.9881C23.0544 40.5756 22.6171 40.2448 22.1245 40.0187C21.6319 39.7926 21.096 39.6767 20.554 39.6791H18.454C17.9978 39.6798 17.5482 39.5712 17.1426 39.3625C16.737 39.1537 16.3874 38.8508 16.123 38.4791C15.3817 37.5259 15.0032 36.3404 15.055 35.1341V19.1381H19.008C20.1073 19.1734 21.177 18.7788 21.99 18.0381C22.3812 17.68 22.6924 17.2434 22.9031 16.7567C23.1139 16.27 23.2195 15.7444 23.213 15.2141C23.2283 14.6633 23.1269 14.1154 22.9156 13.6065C22.7044 13.0976 22.3879 12.6391 21.987 12.2611C21.1746 11.5212 20.1052 11.1282 19.007 11.1661H15.067V1.89107C15.0688 1.54614 14.9757 1.20736 14.7979 0.911764C14.6202 0.616172 14.3645 0.375155 14.059 0.215071C13.7543 0.0562324 13.4114 -0.01479 13.0686 0.00993158C12.7259 0.0346531 12.3968 0.154146 12.118 0.355071L12.095 0.376071L7.89199 3.52307C7.3888 3.89959 6.98025 4.38815 6.6987 4.95001C6.41716 5.51188 6.27038 6.13161 6.26999 6.76007V11.1721H4.73999C3.64117 11.1339 2.57098 11.5269 1.75799 12.2671C1.35722 12.645 1.04083 13.1033 0.829552 13.6121C0.618272 14.1208 0.51687 14.6684 0.531991 15.2191C0.523929 15.7493 0.62851 16.2752 0.83882 16.762C1.04913 17.2489 1.36038 17.6855 1.75199 18.0431C2.56436 18.7848 3.63453 19.1796 4.73399 19.1431H6.27399V35.1341C6.24161 37.4838 6.78002 39.8063 7.84299 41.9021C8.84597 43.8735 10.3587 45.5403 12.224 46.7291C14.1006 47.8499 16.2629 48.4 18.447 48.3121H19.557C20.7958 48.424 22.0326 48.0767 23.032 47.3361C23.5031 46.9406 23.8802 46.4452 24.136 45.8858C24.3918 45.3264 24.5199 44.7171 24.511 44.1021C24.5457 42.9641 24.1533 41.8543 23.411 40.9911" fill="white"/>
<path d="M72.1 26.6701L69.649 23.7291V11.2761L72.1 26.6701Z" fill="#009E5C"/>
<path d="M88.942 31.9851L91.398 34.8121V48.2561L88.942 31.9851Z" fill="#009E5C"/>
</svg>
